mtllib material.mtl
o Default
v 0 1.03125 1.0311963558197021
v 0 1.2939560413360596 1.2999049425125122
v 0 1.5 1.0311640501022339
v 0 1.03125 1.4999219179153442
v 2 1.2939560413360596 1.2999966144561768
v 2 1.03125 1.5
v 0 1.5 0.4687109589576721
v 2 1.2939560413360596 0.19999675452709198
v 0 1.2939560413360596 0.19999675452709198
v 2 1.5 0.4687500596046448
v 0 0 1.0312671661376953
v 2 0.20604395866394043 1.2999967336654663
v 0 0.20604395866394043 1.3000150918960571
v 2 0 1.03125
v 2 0.20604395866394043 0.19999666512012482
v 0 0.46875 0
v 2 0.46875 0
v 0 0.20604395866394043 0.19999666512012482
v 2.25 1.03125 1.03125
v 2 1.5 1.03125
v 2.25 0.46875 1.03125
v 2.25 1.03125 0.46875
v 2.25 0.46875 0.46875
v 2 0 0.46875
v 2 0.46875 1.5
v 2 1.03125 0
v 0 1.03125 0
v 0 0 0.4687578082084656
v 0 0.46875 1.4999780654907227
v 0 0.46875 0.4687432050704956
v 0 0.46875 1.0312349796295166
v 0 1.03125 0.46872562170028687
vt 0.50390625 0.94140625
vt 0.5625 1
vt 0.50390625 1
vt 0.5625 0.94140625
vt 0.8125 0.87109375
vt 0.5625 0.8125
vt 0.8125 0.8125
vt 0.5625 0.87109375
vt 0.8125 0.94140625
vt 0.8125 1
vt 0.375 0.94140625
vt 0.43359375 0.94140625
vt 0.375 1
vt 0.43359375 1
vt 0.43359375 0.87109375
vt 0.50390625 0.87109375
vt 0.50390625 0.8125
vt 0.375 0.87109375
vt 0.43359375 0.8125
vt 0.375 0.8125
vn -1 0 0
vn -0.00003647 0.60577489 0.79563609
vn -0.00003106 0.60574883 0.79565592
vn 0 0.79356396 -0.60848685
vn 0.0000119 0.79360671 -0.60843109
vn 0.00000558 -0.79360083 0.60843876
vn 0.00000522 -0.79359952 0.60844046
vn 0 -0.60573595 -0.79566573
vn 0.83065223 0.33727585 0.44301452
vn 0.82998485 0.44265858 0.33937963
vn 1 0 0
vn 0.82998724 -0.44265986 -0.33937212
vn 0.83065541 -0.33726581 -0.44301622
vn 0.88235294 0.47058824 0
vn 0.88235294 0 0.47058824
vn 0.8299872 0.44265988 -0.33937218
vn 0.83065536 0.33726594 -0.44301619
vn 0.88235294 0 -0.47058824
vn 0.88235294 -0.47058824 0
vn 0.83065229 -0.33727568 0.44301455
vn 0.82998489 -0.44265861 0.3393795
vn -0.00002615 0.79359314 0.60844879
vn -0.00002789 0.79359939 0.60844063
vn 0 1 0
vn 0 0.60573612 -0.7956656
vn 0 0 -1
vn -0.00000238 -0.79361527 -0.60841992
vn 0 -0.79360674 -0.60843105
vn 0 -1 0
vn -0.00003904 0.00009982 0.99999999
vn -0.00001097 0 1
vn -0.00000873 -0.60567134 0.79571491
vn 0.0000073 -0.60574861 0.7956561
g Cylinder
usemtl 0_3
f 1/1/1 2/2/1 3/3/1
f 1/1/1 4/4/1 2/2/1
f 4/5/2 5/6/2 2/7/2
f 4/5/3 6/8/3 5/6/3
f 7/5/4 8/6/4 9/7/4
f 7/5/5 10/8/5 8/6/5
f 11/5/6 12/6/6 13/7/6
f 11/5/7 14/8/7 12/6/7
f 15/2/8 16/9/8 17/4/8
f 15/2/8 18/10/8 16/9/8
f 6/11/9 19/12/9 5/13/9
f 19/12/10 20/14/10 5/13/10
f 21/15/11 22/1/11 19/12/11
f 21/15/11 23/16/11 22/1/11
f 24/17/12 15/6/12 23/16/12
f 15/6/13 17/8/13 23/16/13
f 19/12/14 10/3/14 20/14/14
f 19/12/14 22/1/14 10/3/14
f 25/18/15 19/12/15 6/11/15
f 25/18/15 21/15/15 19/12/15
f 22/1/16 8/2/16 10/3/16
f 22/1/17 26/4/17 8/2/17
f 23/16/18 26/4/18 22/1/18
f 23/16/18 17/8/18 26/4/18
f 14/19/19 23/16/19 21/15/19
f 14/19/19 24/17/19 23/16/19
f 12/20/20 21/15/20 25/18/20
f 12/20/21 14/19/21 21/15/21
f 2/10/22 20/4/22 3/9/22
f 2/10/23 5/2/23 20/4/23
f 3/9/24 10/8/24 7/5/24
f 3/9/24 20/4/24 10/8/24
f 26/8/25 9/7/25 8/6/25
f 26/8/25 27/5/25 9/7/25
f 17/4/26 27/5/26 26/8/26
f 17/4/26 16/9/26 27/5/26
f 18/10/27 24/4/27 28/9/27
f 18/10/28 15/2/28 24/4/28
f 28/9/29 14/8/29 11/5/29
f 28/9/29 24/4/29 14/8/29
f 29/9/30 6/8/30 4/5/30
f 29/9/31 25/4/31 6/8/31
f 13/10/32 25/4/32 29/9/32
f 13/10/33 12/2/33 25/4/33
f 18/20/1 30/15/1 16/18/1
f 18/20/1 28/19/1 30/15/1
f 31/16/1 4/4/1 1/1/1
f 31/16/1 29/8/1 4/4/1
f 32/12/1 3/3/1 7/14/1
f 32/12/1 1/1/1 3/3/1
f 27/11/1 7/14/1 9/13/1
f 27/11/1 32/12/1 7/14/1
f 30/15/1 1/1/1 32/12/1
f 30/15/1 31/16/1 1/1/1
f 16/18/1 32/12/1 27/11/1
f 16/18/1 30/15/1 32/12/1
f 28/19/1 31/16/1 30/15/1
f 28/19/1 11/17/1 31/16/1
f 11/17/1 29/8/1 31/16/1
f 11/17/1 13/6/1 29/8/1
