mtllib material.mtl
o Default
v 0 -0.09375 -0.03125
v -0.1875 0.09375 -0.03125
v 0 0.09375 -0.03125
v -0.1875 -0.09375 -0.03125
v -0.1875 0.25 0.09375
v 0 0.25 0.09375
v -0.1875 -0.375 0.25
v 0 -0.25 0.09375
v 0 -0.375 0.25
v -0.1875 -0.25 0.09375
v -0.1875 -0.25 0.59375
v 0 -0.375 0.4375
v 0 -0.25 0.59375
v -0.1875 -0.375 0.4375
v 0 -0.09375 0.71875
v -0.1875 -0.09375 0.71875
v -0.1875 0.09375 0.71875
v 0 0.25 0.59375
v -0.1875 0.25 0.59375
v 0 0.09375 0.71875
v 0 0.375 0.4375
v -0.1875 0.375 0.4375
v 0 0.375 0.25
v -0.1875 0.375 0.25
v 0 -0.375 0.71875
v 0 0.375 -0.03125
v 0 0.375 0.71875
v 0 -0.375 -0.03125
v -0.1875 -0.375 -0.03125
v -0.1875 0.375 0.71875
v -0.1875 0.375 -0.03125
v -0.1875 -0.375 0.71875
vt 0.61328125 0.80859375
vt 0.63671875 0.78515625
vt 0.63671875 0.80859375
vt 0.61328125 0.78515625
vt 0.671875 0.78515625
vt 0.671875 0.80859375
vt 0.578125 0.78515625
vt 0.578125 0.80859375
vt 0.703125 0.6875
vt 0.796875 0.78125
vt 0.703125 0.78125
vt 0.796875 0.6875
vt 0.578125 0.6875
vt 0.671875 0.78125
vt 0.578125 0.78125
vt 0.671875 0.6875
vn 0 0 -1
vn 0 0.62469505 -0.78086881
vn 0 -0.78086881 -0.62469505
vn 0 -0.78086881 0.62469505
vn 0 -0.62469505 0.78086881
vn 0 0.62469505 0.78086881
vn 0 0.78086881 0.62469505
vn 0 1 0
vn 0 0.78086881 -0.62469505
vn 0 0 1
vn 0 -0.62469505 -0.78086881
vn 0 -1 0
vn 1 0 0
vn -1 0 0
g HatchDoor
usemtl 0_3
f 1/1/1 2/2/1 3/3/1
f 1/1/1 4/4/1 2/2/1
f 3/3/2 5/5/2 6/6/2
f 3/3/2 2/2/2 5/5/2
f 7/2/3 8/6/3 9/3/3
f 7/2/3 10/5/3 8/6/3
f 11/7/4 12/1/4 13/8/4
f 11/7/4 14/4/4 12/1/4
f 11/5/5 15/3/5 16/2/5
f 11/5/5 13/6/5 15/3/5
f 17/4/6 18/8/6 19/7/6
f 17/4/6 20/1/6 18/8/6
f 19/5/7 21/3/7 22/2/7
f 19/5/7 18/6/7 21/3/7
f 22/2/8 23/1/8 24/4/8
f 22/2/8 21/3/8 23/1/8
f 24/4/9 6/8/9 5/7/9
f 24/4/9 23/1/9 6/8/9
f 16/2/10 20/1/10 17/4/10
f 16/2/10 15/3/10 20/1/10
f 8/8/11 4/4/11 1/1/11
f 8/8/11 10/7/11 4/4/11
f 14/4/12 9/3/12 12/1/12
f 14/4/12 7/2/12 9/3/12
f 25/9/13 26/10/13 27/11/13
f 25/9/13 28/12/13 26/10/13
f 29/13/14 30/14/14 31/15/14
f 29/13/14 32/16/14 30/14/14
