mtllib material.mtl
o Default
v -0.03125 0.09375 -0.03125643730163574
v -0.03125 0.40625 0.031243562698364258
v -0.03125 0.40625 -0.03125643730163574
v -0.03125 0.09375 0.031243562698364258
v 0.0625 0.40625 0.06249380111694336
v 0.0625 0.53125 -0.06250619888305664
v 0.0625 0.53125 0.06249380111694336
v 0.0625 0.40625 -0.06250619888305664
v -0.0625 0.40625 -0.06250619888305664
v -0.0625 0.53125 0.06249380111694336
v -0.0625 0.53125 -0.06250619888305664
v -0.0625 0.40625 0.06249380111694336
v 0.03125 0.09375 0.03124380111694336
v 0.03125 0.40625 -0.03125619888305664
v 0.03125 0.40625 0.03124380111694336
v 0.03125 0.09375 -0.03125619888305664
vt 0.45703125 0.0625
vt 0.44921875 0.1015625
vt 0.45703125 0.1015625
vt 0.44921875 0.0625
vt 0.62109375 0.03125
vt 0.60546875 0.046875
vt 0.62109375 0.046875
vt 0.60546875 0.03125
vt 0.48828125 0.0625
vt 0.48046875 0.1015625
vt 0.48828125 0.1015625
vt 0.48046875 0.0625
vt 0.6171875 0.03125
vt 0.6015625 0.046875
vt 0.6171875 0.046875
vt 0.6015625 0.03125
vt 0.5859375 0.03125
vt 0.5703125 0.046875
vt 0.5859375 0.046875
vt 0.5703125 0.03125
vt 0.6015625 0.0625
vt 0.6171875 0.0625
vt 0.6171875 0.015625
vt 0.6015625 0.015625
vn -1 0 0
vn 1 0 0
vn -0.00000381 0 1
vn 0.00000381 0 -1
vn 0 0 1
vn 0 0 -1
vn 0 1 0
vn 0 -1 0
g Lever
usemtl 0_3
f 1/1/1 2/2/1 3/3/1
f 1/1/1 4/4/1 2/2/1
f 5/5/2 6/6/2 7/7/2
f 5/5/2 8/8/2 6/6/2
f 9/5/1 10/6/1 11/7/1
f 9/5/1 12/8/1 10/6/1
f 13/9/2 14/10/2 15/11/2
f 13/9/2 16/12/2 14/10/2
f 4/9/3 15/10/3 2/11/3
f 4/9/3 13/12/3 15/10/3
f 16/1/4 3/2/4 14/3/4
f 16/1/4 1/4/4 3/2/4
f 12/13/5 7/14/5 10/15/5
f 12/13/5 5/16/5 7/14/5
f 8/17/6 11/18/6 6/19/6
f 8/17/6 9/20/6 11/18/6
f 10/15/7 6/21/7 11/22/7
f 10/15/7 7/14/7 6/21/7
f 9/23/8 5/16/8 12/13/8
f 9/23/8 8/24/8 5/16/8
