mtllib material.mtl
o Default
v -0.5 0 -0.5
v -0.5 2.1875 0
v -0.5 2.1875 -0.5
v -0.5 0 0
v 1.7763568394002505e-15 0 0
v 1.7763568394002505e-15 2.1875 -0.5
v 1.7763568394002505e-15 2.1875 0
v 1.7763568394002505e-15 0 -0.5
v -0.5 0.25 0.00002499999936844688
v 0 0.25 -0.4999749958515167
v -0.5 0.25 -0.4999749958515167
v 0 0.25 0.00002499999936844688
v -0.5 1.25 0.00002499999936844688
v 0 1.25 -0.4999749958515167
v -0.5 1.25 -0.4999749958515167
v 0 1.25 0.00002499999936844688
v -0.5 1.125 -0.5000249743461609
v 0 1.125 -0.00002499999936844688
v -0.5 1.125 -0.00002499999936844688
v 0 1.125 -0.5000249743461609
v -0.5 2.09375 -0.5000249743461609
v 0 2.09375 -0.00002499999936844688
v -0.5 2.09375 -0.00002499999936844688
v 0 2.09375 -0.5000249743461609
v -0.09375 0 -8.881784197001252e-16
v -0.09375 2.1875 -8.881784197001252e-16
v -0.40625 2.1875 -8.881784197001252e-16
v -0.40625 0 -8.881784197001252e-16
v -0.09375 0.25 -8.881784197001252e-16
v -0.40625 0.25 -8.881784197001252e-16
v -0.40625 1.09375 -8.881784197001252e-16
v -0.09375 1.25 -8.881784197001252e-16
v -0.40625 1.25 -8.881784197001252e-16
v -0.09375 1.09375 -8.881784197001252e-16
v -0.40625 2.09375 -8.881784197001252e-16
v -0.09375 2.09375 -8.881784197001252e-16
vt 0 0.4140625
vt 0.0625 0.6875
vt 0 0.6875
vt 0.0625 0.4140625
vt 0.125 0.4140625
vt 0.1875 0.6875
vt 0.125 0.6875
vt 0.1875 0.4140625
vt 0.0625 0.3125
vt 0.125 0.375
vt 0.0625 0.375
vt 0.125 0.3125
vt 0.125 0.75
vt 0.0625 0.75
vt 0.23828125 0.4140625
vt 0.25 0.6875
vt 0.23828125 0.6875
vt 0.25 0.4140625
vt 0.19921875 0.6875
vt 0.19921875 0.4140625
vt 0.23828125 0.4453125
vt 0.19921875 0.4453125
vt 0.19921875 0.55078125
vt 0.23828125 0.5703125
vt 0.19921875 0.5703125
vt 0.23828125 0.55078125
vt 0.19921875 0.67578125
vt 0.23828125 0.67578125
vt 0.3125 0.6875
vt 0.3125 0.4140625
vn -1 0 0
vn 1 0 0
vn 0 -1 0
vn 0 1 0
vn 0 0 1
g OpenLocker
usemtl 1
f 1/1/1 2/2/1 3/3/1
f 1/1/1 4/4/1 2/2/1
f 5/5/2 6/6/2 7/7/2
f 5/5/2 8/8/2 6/6/2
f 1/9/3 5/10/3 4/11/3
f 1/9/3 8/12/3 5/10/3
f 2/2/4 6/13/4 3/14/4
f 2/2/4 7/7/4 6/13/4
f 9/9/4 10/10/4 11/11/4
f 9/9/4 12/12/4 10/10/4
f 13/9/4 14/10/4 15/11/4
f 13/9/4 16/12/4 14/10/4
f 17/10/3 18/9/3 19/12/3
f 17/10/3 20/11/3 18/9/3
f 21/10/3 22/9/3 23/12/3
f 21/10/3 24/11/3 22/9/3
f 25/15/5 7/16/5 26/17/5
f 25/15/5 5/18/5 7/16/5
f 4/8/5 27/19/5 2/6/5
f 4/8/5 28/20/5 27/19/5
f 28/20/5 29/21/5 30/22/5
f 28/20/5 25/15/5 29/21/5
f 31/23/5 32/24/5 33/25/5
f 31/23/5 34/26/5 32/24/5
f 35/27/5 26/17/5 27/19/5
f 35/27/5 36/28/5 26/17/5
f 1/18/5 6/29/5 3/16/5
f 1/18/5 8/30/5 6/29/5
