mtllib material.mtl
o Default
v 0.25 0.9375 -4.148483334631692e-9
v 0.40625 1 -0.15624511241912842
v 0.25 0.9375 -0.15624389052391052
v 0.40625 1 -4.148483334631692e-9
v 0.15625 0.84375 -4.148483334631692e-9
v 0.15625 0.84375 -0.15624219179153442
v 0 0.59375 -0.15624511241912842
v 0.0625 0.75 0
v 0.0625 0.75 -0.15624389052391052
v 0 0.59375 0
v 0 0.40625 -0.156247079372406
v 0 0.40625 0
v 0.0625 0.25 -0.1562483012676239
v 0.0625 0.25 0
v 0.15625 0.15625 -0.15625
v 0.15625 0.15625 0
v 0.25 0.0625 4.148483334631692e-9
v 0.25 0.0625 -0.15625
v 0.40625 0 4.148483334631692e-9
v 0.40625 0 -0.15625
v 0.59375 0 4.148483334631692e-9
v 0.59375 0 -0.15625
v 0.75 0.0625 4.148483334631692e-9
v 0.75 0.0625 -0.15625
v 0.84375 0.15625 4.148483334631692e-9
v 0.84375 0.15625 -0.15625
v 0.9375 0.25 0
v 1 0.40625 -0.15625
v 1 0.40625 0
v 0.9375 0.25 -0.15625
v 1 0.59375 -0.15625
v 1 0.59375 0
v 0.9375 0.75 -0.15625
v 0.9375 0.75 0
v 0.84375 0.84375 -0.15625
v 0.84375 0.84375 0
v 0.75 0.9375 -4.148483334631692e-9
v 0.75 0.9375 -0.1562482863664627
v 0.59375 1 -4.148483334631692e-9
v 0.59375 1 -0.1562470644712448
v 0 0 0
v 1 1 0
v 0 1 0
v 1 0 0
vt 0.58984375 0.5625
vt 0.609375 0.58203125
vt 0.58984375 0.58203125
vt 0.609375 0.5625
vt 0.5625 0.5625
vt 0.5625 0.58203125
vt 0.640625 0.58203125
vt 0.66015625 0.5625
vt 0.66015625 0.58203125
vt 0.640625 0.5625
vt 0.6875 0.5625
vt 0.6875 0.58203125
vt 0.5625 0.4375
vt 0.6875 0.4375
vn -0.37139068 0.92847669 0
vn -0.70710678 0.70710678 0
vn -0.92847669 0.37139068 0
vn -1 0 0
vn -0.92847669 -0.37139068 0
vn -0.70710678 -0.70710678 0
vn -0.37139068 -0.92847669 0
vn 0 -1 0
vn 0.37139068 -0.92847669 0
vn 0.70710678 -0.70710678 0
vn 0.92847669 -0.37139068 0
vn 1 0 0
vn 0.92847669 0.37139068 0
vn 0.70710678 0.70710678 0
vn 0.37139068 0.92847669 0
vn 0 1 0
vn 0 0 1
g Porthole
usemtl 0_3
f 1/1/1 2/2/1 3/3/1
f 1/1/1 4/4/1 2/2/1
f 5/5/2 3/3/2 6/6/2
f 5/5/2 1/1/2 3/3/2
f 7/7/3 8/8/3 9/9/3
f 7/7/3 10/10/3 8/8/3
f 9/9/2 5/11/2 6/12/2
f 9/9/2 8/8/2 5/11/2
f 11/2/4 10/10/4 7/7/4
f 11/2/4 12/4/4 10/10/4
f 13/3/5 12/4/5 11/2/5
f 13/3/5 14/1/5 12/4/5
f 15/6/6 14/1/6 13/3/6
f 15/6/6 16/5/6 14/1/6
f 15/12/6 17/8/6 16/11/6
f 15/12/6 18/9/6 17/8/6
f 18/9/7 19/10/7 17/8/7
f 18/9/7 20/7/7 19/10/7
f 20/7/8 21/4/8 19/10/8
f 20/7/8 22/2/8 21/4/8
f 22/2/9 23/1/9 21/4/9
f 22/2/9 24/3/9 23/1/9
f 24/3/10 25/5/10 23/1/10
f 24/3/10 26/6/10 25/5/10
f 27/8/11 28/7/11 29/10/11
f 27/8/11 30/9/11 28/7/11
f 25/11/10 30/9/10 27/8/10
f 25/11/10 26/12/10 30/9/10
f 29/10/12 31/2/12 32/4/12
f 29/10/12 28/7/12 31/2/12
f 32/4/13 33/3/13 34/1/13
f 32/4/13 31/2/13 33/3/13
f 34/1/14 35/6/14 36/5/14
f 34/1/14 33/3/14 35/6/14
f 37/8/14 35/12/14 38/9/14
f 37/8/14 36/11/14 35/12/14
f 39/10/15 38/9/15 40/7/15
f 39/10/15 37/8/15 38/9/15
f 4/4/16 40/7/16 2/2/16
f 4/4/16 39/10/16 40/7/16
f 41/13/17 42/11/17 43/5/17
f 41/13/17 44/14/17 42/11/17
