mtllib material.mtl
o Default
v -2.220446049250313e-16 3.0000269412994385 -1.9999998807907104
v 1 3.0001165866851807 -0.9998999238014221
v -2.220446049250313e-16 3.0000903606414795 -0.9998999238014221
v 1 3.000032901763916 -1.9999998807907104
v 1 3.0002167224884033 0.00010005835065385327
v -2.220446049250313e-16 3.000190496444702 0.00010005835065385327
v 2 3.0001168251037598 -0.9998999238014221
v 2 3.000032901763916 -1.9999998807907104
v 2 3.000216484069824 0.00010005835065385327
v 1 3.25009822845459 -1.9999998807907104
v 2 3.250001907348633 -2.0001001358032227
v 2 3.2499136924743652 -1.0001999139785767
v 2 3.2498135566711426 -0.00019994952890556306
v -1.1102230246251565e-16 3.249998092651367 -0.9999999403953552
v -1.1102230246251565e-16 3.25009822845459 -1.9999998807907104
v 1 3.2498321533203125 -0.00019994414469692856
v 2.220446049250313e-16 3.2498321533203125 -0.0001999346277443692
v 1 3.2499983310699463 -0.9999999403953552
vt 0.25 0.875
vt 0.375 1
vt 0.25 1
vt 0.375 0.875
vt 0.25 0.84375
vt 0.375 0.84375
vn 0.00002623 -1 0.00006341
vn 0.00000596 -1 0.00008368
vn 0.00002623 -0.99999999 0.00010014
vn 2.4e-7 -1 0.00008368
vn 0 -1 0.00008391
vn -2.4e-7 -0.99999999 0.00010014
vn 2.4e-7 -1 0.00009966
vn -0.00010029 -0.00040107 -0.99999991
vn 0 0 -1
vn 1 0 0
vn -1 0 0
vn 3e-8 0.00120186 0.99999928
vn 0 0.00120197 0.99999928
vn -2.4e-7 0.99999999 0.00016597
vn 0 0.99999999 0.00016621
vn 1e-8 0.00120169 0.99999928
vn -3e-8 0.00120186 0.99999928
vn 0.00009633 0.99999999 0.0000999
vn 0.00008466 0.99999999 0.00008822
vn 0.00008467 0.99999998 0.00016621
vn 0.0000186 0.99999999 0.00010014
vn 0 0.99999999 0.00010014
g RoofTile
usemtl 0_3
f 1/1/1 2/2/1 3/3/1
f 1/1/2 4/4/2 2/2/2
f 3/1/3 5/2/3 6/3/3
f 3/1/3 2/4/3 5/2/3
f 4/1/4 7/2/4 2/3/4
f 4/1/5 8/4/5 7/2/5
f 2/1/6 9/2/6 5/3/6
f 2/1/7 7/4/7 9/2/7
f 8/5/8 10/4/8 11/1/8
f 8/5/9 4/6/9 10/4/9
f 9/5/10 12/4/10 13/1/10
f 9/5/10 7/6/10 12/4/10
f 1/5/11 14/4/11 15/1/11
f 1/5/11 3/6/11 14/4/11
f 5/5/12 13/4/12 16/1/12
f 5/5/13 9/6/13 13/4/13
f 7/5/10 11/4/10 12/1/10
f 7/5/10 8/6/10 11/4/10
f 3/5/11 17/4/11 14/1/11
f 3/5/11 6/6/11 17/4/11
f 17/1/14 18/2/14 14/3/14
f 17/1/15 16/4/15 18/2/15
f 6/5/16 16/4/16 17/1/16
f 6/5/17 5/6/17 16/4/17
f 4/5/9 15/4/9 10/1/9
f 4/5/9 1/6/9 15/4/9
f 18/1/18 11/2/18 10/3/18
f 18/1/19 12/4/19 11/2/19
f 16/1/20 12/2/20 18/3/20
f 16/1/21 13/4/21 12/2/21
f 14/1/22 10/2/22 15/3/22
f 14/1/22 18/4/22 10/2/22
