mtllib material.mtl
o Default
v -0.140625 0.09375 0.000004167908628005534
v -0.09375 0.21875 0.09375
v -0.140625 0.21875 0.000004167908628005534
v -0.09375 0.09375 0.09375
v -0.09375 0.09375 -0.09375
v -0.09375 0.21875 -0.09375
v 8.881784197001252e-16 0.09375 0.14062917232513428
v 0.09375 0.21875 0.09375
v 8.881784197001252e-16 0.21875 0.14062917232513428
v 0.09375 0.09375 0.09375
v 0.140625 0.21875 0.000004167908628005534
v 0.140625 0.09375 0.000004167908628005534
v 0.09375 0.21875 -0.09375
v 0.09375 0.09375 -0.09375
v 8.881784197001252e-16 0.21875 -0.14062082767486572
v 8.881784197001252e-16 0.09375 -0.14062082767486572
v 0 0.21875 -0.000025007449949043803
vt 0.375 0.109375
vt 0.359375 0.09765625
vt 0.359375 0.109375
vt 0.375 0.09765625
vt 0.375 0.12109375
vt 0.359375 0.12109375
vt 0.33984375 0.109375
vt 0.33984375 0.12109375
vt 0.328125 0.109375
vt 0.328125 0.12109375
vt 0.33984375 0.09765625
vt 0.328125 0.09765625
vt 0.31640625 0.12109375
vt 0.31640625 0.109375
vt 0.31640625 0.09765625
vn -0.89441924 0 0.4472295
vn -0.89443514 0 -0.44719769
vn 0.44724544 0 0.89441127
vn -0.44724544 0 0.89441127
vn 0.89441924 0 0.4472295
vn 0.89443514 0 -0.44719769
vn 0.44718175 0 -0.89444311
vn -0.44718175 0 -0.89444311
vn 0 1 0
g RoundButton
usemtl 0_3
f 1/1/1 2/2/1 3/3/1
f 1/1/1 4/4/1 2/2/1
f 5/5/2 3/3/2 6/6/2
f 5/5/2 1/1/2 3/3/2
f 7/1/3 8/2/3 9/3/3
f 7/1/3 10/4/3 8/2/3
f 4/5/4 9/3/4 2/6/4
f 4/5/4 7/1/4 9/3/4
f 10/5/5 11/3/5 8/6/5
f 10/5/5 12/1/5 11/3/5
f 12/1/6 13/2/6 11/3/6
f 12/1/6 14/4/6 13/2/6
f 14/5/7 15/3/7 13/6/7
f 14/5/7 16/1/7 15/3/7
f 16/1/8 6/2/8 15/3/8
f 16/1/8 5/4/8 6/2/8
f 9/7/9 8/8/9 17/9/9
f 8/8/9 11/10/9 17/9/9
f 2/11/9 17/9/9 3/12/9
f 2/11/9 9/7/9 17/9/9
f 17/9/9 13/13/9 15/14/9
f 17/9/9 11/10/9 13/13/9
f 3/12/9 17/9/9 6/15/9
f 17/9/9 15/14/9 6/15/9
