mtllib material.mtl
o Default
v 0 0.4375 -0.00002499999936844688
v 0.03125 0.4375 -0.03127500042319298
v 0 0.4375 -0.03127500042319298
v 0.03125 0.4375 -0.00002499999936844688
v 0 0 0
v 0 0.1875 0
v -0.03125 0 -0.0625
v -0.03125 0.1875 0.03125
v -0.03125 0.1875 -0.0625
v -0.03125 0 0.03125
v 0.03125 0.1875 -0.03125
v 0.0625 0 -0.0625
v 0.0625 0.1875 -0.0625
v 0.03125 0.1875 0
v 0.0625 0 0.03125
v 0.0625 0.1875 0.03125
vt 0.69140625 0.30078125
vt 0.6953125 0.3046875
vt 0.69140625 0.3046875
vt 0.6953125 0.30078125
vt 0.69140625 0.2734375
vt 0.6953125 0.2734375
vt 0.6875 0.25
vt 0.69921875 0.2734375
vt 0.6875 0.2734375
vt 0.69921875 0.25
vt 0.7109375 0.26171875
vt 0.69921875 0.26171875
vt 0.7109375 0.25
vt 0.7109375 0.2734375
vn 0 1 0
vn -1 0 0
vn 0 -0.0001 -0.99999999
vn -0.49496174 -0.06195689 -0.86670307
vn 0 0 -1
vn 1 0 0
vn 0 0.0001 1
vn 0 -1 0
vn 0 0 1
g Screwdriver
usemtl 0_3
f 1/1/1 2/2/1 3/3/1
f 1/1/1 4/4/1 2/2/1
f 5/5/2 1/2/2 3/3/2
f 5/5/2 6/6/2 1/2/2
f 7/7/2 8/8/2 9/9/2
f 7/7/2 10/10/2 8/8/2
f 11/5/3 3/2/3 2/3/3
f 11/5/4 5/6/4 3/2/4
f 12/7/5 9/8/5 13/9/5
f 12/7/5 7/10/5 9/8/5
f 14/5/6 2/2/6 4/3/6
f 14/5/6 11/6/6 2/2/6
f 15/7/6 13/8/6 16/9/6
f 15/7/6 12/10/6 13/8/6
f 6/5/7 4/2/7 1/3/7
f 6/5/7 14/6/7 4/2/7
f 7/10/8 15/11/8 10/12/8
f 7/10/8 12/13/8 15/11/8
f 8/12/1 13/14/1 9/8/1
f 8/12/1 16/11/1 13/14/1
f 10/7/9 16/8/9 8/9/9
f 10/7/9 15/10/9 16/8/9
