mtllib material.mtl
o Default
v -0.125 0 -0.125
v -0.125 0.375 0.125
v -0.125 0.375 -0.125
v -0.125 0 0.125
v 0.125 0.375 0.125
v 0.125 0 0.125
v 0.125 0.375 -0.125
v 0.125 0 -0.125
v -0.125 0.375 0.06247499957680702
v -0.0625 0.4375 -0.06252499669790268
v -0.125 0.375 -0.06252499669790268
v -0.0625 0.4375 0.06247499957680702
v 0.0625 0.4375 0.06247499957680702
v 0.0625 0.4375 -0.06252499669790268
v 0.125 0.375 -0.06252499669790268
v 0.125 0.375 0.06247499957680702
v 0.0625 0.375 -0.12502500414848328
v -0.0625 0.375 -0.12502500414848328
v -0.0625 0.375 0.12497500330209732
v 0.0625 0.375 0.12497500330209732
vt 0.765625 0.3125
vt 0.796875 0.359375
vt 0.765625 0.359375
vt 0.796875 0.3125
vt 0.765625 0.453125
vt 0.796875 0.484375
vt 0.765625 0.484375
vt 0.796875 0.453125
vt 0.765625 0.3984375
vt 0.7734375 0.4140625
vt 0.765625 0.4140625
vt 0.7734375 0.3984375
vt 0.7890625 0.3984375
vt 0.7890625 0.4140625
vt 0.796875 0.4140625
vt 0.796875 0.3984375
vt 0.796875 0.421875
vt 0.7890625 0.421875
vt 0.7734375 0.421875
vt 0.765625 0.421875
vt 0.765625 0.390625
vt 0.7734375 0.390625
vt 0.7890625 0.390625
vt 0.796875 0.390625
vn -1 0 0
vn 0 0 1
vn 1 0 0
vn 0 0 -1
vn 0 -1 0
vn -0.70710678 0.70710678 0
vn 0 1 0
vn 0.70710678 0.70710678 0
vn 0.00028289 0.7071068 -0.70710671
vn 0 0.70710682 -0.70710674
vn -0.00028289 0.7071068 -0.70710671
vn 0.00028281 0.70710677 0.70710673
vn -0.00028281 0.70710677 0.70710673
vn 0 0.7071068 0.70710676
g SmallLight
usemtl 0_3
f 1/1/1 2/2/1 3/3/1
f 1/1/1 4/4/1 2/2/1
f 4/1/2 5/2/2 2/3/2
f 4/1/2 6/4/2 5/2/2
f 6/1/3 7/2/3 5/3/3
f 6/1/3 8/4/3 7/2/3
f 8/1/4 3/2/4 7/3/4
f 8/1/4 1/4/4 3/2/4
f 1/5/5 6/6/5 4/7/5
f 1/5/5 8/8/5 6/6/5
f 9/9/6 10/10/6 11/11/6
f 9/9/6 12/12/6 10/10/6
f 12/12/7 13/13/7 10/10/7
f 13/13/7 14/14/7 10/10/7
f 13/13/8 15/15/8 14/14/8
f 13/13/8 16/16/8 15/15/8
f 14/14/9 7/17/9 17/18/9
f 14/14/8 15/15/8 7/17/8
f 10/10/10 17/18/10 18/19/10
f 10/10/10 14/14/10 17/18/10
f 11/11/6 10/10/6 3/20/6
f 10/10/11 18/19/11 3/20/11
f 2/21/6 12/12/6 9/9/6
f 2/21/12 19/22/12 12/12/12
f 20/23/13 5/24/13 13/13/13
f 5/24/8 16/16/8 13/13/8
f 19/22/14 13/13/14 12/12/14
f 19/22/14 20/23/14 13/13/14
