mtllib material.mtl
o Default
v -0.28119659423828125 1.03125 -2
v -0.5499048233032227 1.2939560413360596 -2
v -0.28116416931152344 1.5 -2
v -0.7499217987060547 1.03125 -2
v -0.5499968528747559 1.2939560413360596 0
v -0.75 1.03125 0
v 0.28128910064697266 1.5 -2
v 0.5500029921531677 1.2939560413360596 0
v 0.5500029921531677 1.2939560413360596 -2
v 0.28125 1.5 0
v -0.2812671959400177 0 -2
v -0.5499967932701111 0.20604395866394043 0
v -0.5500149130821228 0.20604395866394043 -2
v -0.2812500298023224 0 0
v 0.5500030517578125 0.20604395866394043 -8.881784197001252e-16
v 0.75 0.46875 -2
v 0.75 0.46875 -8.881784197001252e-16
v 0.5500030517578125 0.20604395866394043 -2
v -0.28125 1.03125 0.03125
v -0.28125 1.5 -4.440892098500626e-16
v 0.28125 0 -4.440892098500626e-16
v 0.28125 0.46875 0.03125
v 0.28125 1.03125 0.03125
v -0.75 0.46875 0
v -0.28125 0.46875 0.03125
v 0.75 1.03125 -4.440892098500626e-16
v 0.75 1.03125 -2
v 0.28124237060546875 0 -2
v -0.7499780654907227 0.46875 -2
v 0.28125667572021484 0.46875 -2
v -0.2812352180480957 0.46875 -2
v 0.28127479553222656 1.03125 -2
v -0.4375 0 -0.9375
v 0.4375 0.84375 -0.9375
v -0.4375 0.84375 -0.9375
v 0.4375 0 -0.9375
v -0.4375 0 -1.46875
v 0.4375 0.84375 -1.46875
v -0.4375 0.84375 -1.46875
v 0.4375 0 -1.46875
vt 0.94140625 0.94140625
vt 1 1
vt 0.94140625 1
vt 1 0.94140625
vt 0.8125 0.87109375
vt 0.5625 0.8125
vt 0.8125 0.8125
vt 0.5625 0.87109375
vt 0.5625 1
vt 0.8125 0.94140625
vt 0.5625 0.94140625
vt 0.8125 1
vt 0.8125 0.75390625
vt 0.87109375 0.75390625
vt 0.87109375 0.8125
vt 0.94140625 0.625
vt 1 0.625
vt 0.94140625 0.68359375
vt 1 0.68359375
vt 0.94140625 0.8125
vt 0.94140625 0.75390625
vt 0.8125 0.68359375
vt 0.87109375 0.68359375
vt 1 0.8125
vt 1 0.75390625
vt 0.87109375 0.625
vt 0.8125 0.625
vt 0.87109375 0.87109375
vt 0.94140625 0.87109375
vt 1 0.87109375
vt 0.87109375 0.94140625
vt 0.87109375 1
vt 0.5703125 0.58203125
vt 0.6796875 0.6875
vt 0.5703125 0.6875
vt 0.6796875 0.58203125
vn 0 0 -1
vn -0.79563609 0.60577489 -0.00003661
vn -0.79565627 0.60574838 -0.00003111
vn 0.60848729 0.79356362 0
vn 0.60843154 0.79360636 0.0000119
vn -0.60843906 -0.7936006 0.00000551
vn -0.60844042 -0.79359956 0.00000522
vn 0.79566532 -0.60573649 0
vn -0.06643388 0.05057738 0.99650814
vn -0.05093288 0.06643267 0.99649011
vn 0.05093171 -0.06643268 0.99649017
vn 0.06643388 -0.05057582 0.99650822
vn 0 0.06651901 0.99778516
vn -0.06651901 0 0.99778516
vn 0.05093172 0.06643268 0.99649017
vn 0.06643388 0.05057584 0.99650822
vn 0.06651901 0 0.99778516
vn 0 -0.06651901 0.99778516
vn -0.06643388 -0.0505774 0.99650814
vn -0.05093289 -0.06643267 0.99649011
vn -0.60844913 0.79359288 -0.00002611
vn -0.60844029 0.79359965 -0.000028
vn 0 1 0
vn 0.79566523 0.60573661 0
vn 1 0 0
vn 0.60842058 -0.79361477 -0.00000232
vn 0.60843145 -0.79360643 0
vn 0 -1 0
vn -0.99999999 0.00010003 -0.0000391
vn -1 0 -0.00001097
vn -0.79571465 -0.60567168 -0.00000873
vn -0.79565618 -0.60574849 0.00000721
vn 0 0 1
g TorpedoLauncherBox
usemtl 0_3
f 1/1/1 2/2/1 3/3/1
f 1/1/1 4/4/1 2/2/1
f 4/5/2 5/6/2 2/7/2
f 4/5/3 6/8/3 5/6/3
f 7/5/4 8/6/4 9/7/4
f 7/5/5 10/8/5 8/6/5
f 11/5/6 12/6/6 13/7/6
f 11/5/7 14/8/7 12/6/7
f 15/9/8 16/10/8 17/11/8
f 15/9/8 18/12/8 16/10/8
f 6/13/9 19/14/9 5/7/9
f 19/14/10 20/15/10 5/7/10
f 21/16/11 15/17/11 22/18/11
f 15/17/12 17/19/12 22/18/12
f 19/14/13 10/20/13 20/15/13
f 19/14/13 23/21/13 10/20/13
f 24/22/14 19/14/14 6/13/14
f 24/22/14 25/23/14 19/14/14
f 23/21/15 8/24/15 10/20/15
f 23/21/16 26/25/16 8/24/16
f 22/18/17 26/25/17 23/21/17
f 22/18/17 17/19/17 26/25/17
f 14/26/18 22/18/18 25/23/18
f 14/26/18 21/16/18 22/18/18
f 12/27/19 25/23/19 24/22/19
f 12/27/20 14/26/20 25/23/20
f 2/12/21 20/11/21 3/10/21
f 2/12/22 5/9/22 20/11/22
f 3/10/23 10/8/23 7/5/23
f 3/10/23 20/11/23 10/8/23
f 26/8/24 9/7/24 8/6/24
f 26/8/24 27/5/24 9/7/24
f 17/11/25 27/5/25 26/8/25
f 17/11/25 16/10/25 27/5/25
f 18/12/26 21/11/26 28/10/26
f 18/12/27 15/9/27 21/11/27
f 28/10/28 14/8/28 11/5/28
f 28/10/28 21/11/28 14/8/28
f 29/10/29 6/8/29 4/5/29
f 29/10/30 24/11/30 6/8/30
f 13/12/31 24/11/31 29/10/31
f 13/12/32 12/9/32 24/11/32
f 18/7/1 30/28/1 16/5/1
f 18/7/1 28/15/1 30/28/1
f 31/29/1 4/4/1 1/1/1
f 31/29/1 29/30/1 4/4/1
f 32/31/1 3/3/1 7/32/1
f 32/31/1 1/1/1 3/3/1
f 27/10/1 7/32/1 9/12/1
f 27/10/1 32/31/1 7/32/1
f 30/28/1 1/1/1 32/31/1
f 30/28/1 31/29/1 1/1/1
f 16/5/1 32/31/1 27/10/1
f 16/5/1 30/28/1 32/31/1
f 28/15/1 31/29/1 30/28/1
f 28/15/1 11/20/1 31/29/1
f 11/20/1 29/30/1 31/29/1
f 11/20/1 13/24/1 29/30/1
f 33/33/33 34/34/33 35/35/33
f 33/33/33 36/36/33 34/34/33
f 37/33/33 38/34/33 39/35/33
f 37/33/33 40/36/33 38/34/33
