mtllib material.mtl
o Default
v 0.125 0 -0.125
v -0.125 0.09375 -0.125
v 0.125 0.09375 -0.125
v -0.125 0 -0.125
v -0.125 0.09375 0.125
v -0.125 0 0.125
v 0.125 0.09375 0.125
v 0.125 0 0.125
vt 0.37109375 0
vt 0.359375 0.03125
vt 0.359375 0
vt 0.37109375 0.03125
vt 0.34375 0
vt 0.3125 0.03125
vt 0.3125 0
vt 0.34375 0.03125
vt 0.28125 0.0625
vt 0.3125 0.09375
vt 0.28125 0.09375
vt 0.3125 0.0625
vn 0 0 -1
vn -1 0 0
vn 0 0 1
vn 0 1 0
vn 0 -1 0
vn 1 0 0
g TriangleButtonCase
usemtl 0_3
f 1/1/1 2/2/1 3/3/1
f 1/1/1 4/4/1 2/2/1
f 4/1/2 5/2/2 2/3/2
f 4/1/2 6/4/2 5/2/2
f 6/1/3 7/2/3 5/3/3
f 6/1/3 8/4/3 7/2/3
f 7/5/4 2/6/4 5/7/4
f 7/5/4 3/8/4 2/6/4
f 4/9/5 8/10/5 6/11/5
f 4/9/5 1/12/5 8/10/5
f 8/1/6 3/2/6 7/3/6
f 8/1/6 1/4/6 3/2/6
