mtllib material.mtl
o Default
v -2 0 1.7763568394002505e-15
v -1 0.125 1.7763568394002505e-15
v -2 0.125 1.7763568394002505e-15
v -1 0 1.7763568394002505e-15
v -1 0.25 -0.09375
v -2 0.25 -0.09375
v -5.329070518200751e-15 0.125 1.7763568394002505e-15
v -5.329070518200751e-15 0 1.7763568394002505e-15
v -5.329070518200751e-15 0.25 -0.09375
v -5.329070518200751e-15 0.25 -0.25
v -1 0.25 -0.25
v -1 0.000051175513362977654 -0.5000249743461609
v -5.329070518200751e-15 0.000051175513362977654 -0.5000249743461609
v -2 0.25 -0.25
v -2 0.000051175513362977654 -0.5000249743461609
v 1.7763568394002505e-15 0.25 -0.5
v 1.7763568394002505e-15 0.125 -0.5
v -2 0.125 -0.5
v -2 0.25 -0.5
v -5.329070518200751e-15 1.21875 -0.25
v -1 1.21875 -0.25
v -2 1.21875 -0.25
v 1.7763568394002505e-15 1.21875 -0.5
v -1 1.2187803983688354 -0.5000147819519043
v -2 1.2187803983688354 -0.5000147819519043
v 0 1.21875 -1.5
v -1 1.21875 -1.5
v -2 1.21875 -1.5
v 0 2.21875 -0.5
v 0 2.21875 -1.5
v -1 2.21875 -1.5
v -2 2.21875 -1.5
v -2 2.21875 -0.5
v 0 2.21875 -0.25
v -2 2.21875 -0.25
v -1 2.21875 -0.25
v -1 2.21875 -0.5
v -1 2.75 0.5
v -2 2.75 0.5
v 0 2.75 0.5
v -1.75 2.75 0.5
v -1 3 0.5
v -1.75 3 0.5
v -0.25 3 0.5
v -0.25 2.75 0.5
v -2 3 -1.5
v -2 3 -0.5
v -1 3 -1.5
v 0 3 -1.5
v 1.7763568394002505e-15 3 -0.5
vt 0.0625 0.3125
vt 0.1875 0.328125
vt 0.0625 0.328125
vt 0.1875 0.3125
vt 0.1875 0.34375
vt 0.0625 0.34375
vt 0.1875 0.375
vt 0.0625 0.375
vt 0.0625 0.75
vt 0.1875 0.8125
vt 0.0625 0.8125
vt 0.1875 0.75
vt 0 0.359375
vt 0 0.375
vt 0.0625 0.359375
vt 0 0.34375
vt 0.25 0.359375
vt 0.1875 0.359375
vt 0.25 0.34375
vt 0.25 0.375
vt 0.125 0
vt 0.25 0.12109375
vt 0.125 0.12109375
vt 0.25 0
vt 0.03125 0.375
vt 0.0625 0.49609375
vt 0.03125 0.49609375
vt 0.25 0.4375
vt 0.375 0.58984375
vt 0.25 0.58984375
vt 0.375 0.4375
vt 0.21875 0.49609375
vt 0.1875 0.49609375
vt 0.21875 0.375
vt 0 0.09375
vt 0.125 0.125
vt 0 0.125
vt 0.125 0.09375
vt 0 0.875
vt 0.125 1
vt 0 1
vt 0.125 0.875
vt 0.25 1
vt 0.25 0.875
vt 0.25 0.125
vt 0.0625 0.6875
vt 0.1875 0.78515625
vt 0.0625 0.78515625
vt 0.1875 0.6875
vn 0 0 1
vn 0 0.6 0.8
vn 0 1 0
vn 0 -0.99999999 -0.00010235
vn 1 0 0
vn -1 0 0
vn 0.00001478 0.00002049 -1
vn 0 0.00000836 -1
vn 0.0000304 0.99999999 0.00012159
vn 0 0.99999999 0.00012159
vn 0 1 -0.0000304
vn 0.0000304 1 0
vn 0 -0.81602448 0.57801734
g VendingMachine
usemtl 0_3
f 1/1/1 2/2/1 3/3/1
f 1/1/1 4/4/1 2/2/1
f 3/3/2 5/5/2 6/6/2
f 3/3/2 2/2/2 5/5/2
f 4/1/1 7/2/1 2/3/1
f 4/1/1 8/4/1 7/2/1
f 2/3/2 9/5/2 5/6/2
f 2/3/2 7/2/2 9/5/2
f 5/6/3 10/7/3 11/8/3
f 5/6/3 9/5/3 10/7/3
f 8/9/4 12/10/4 13/11/4
f 8/9/4 4/12/4 12/10/4
f 6/6/3 11/7/3 14/8/3
f 6/6/3 5/5/3 11/7/3
f 4/9/4 15/10/4 12/11/4
f 4/9/4 1/12/4 15/10/4
f 7/13/5 16/8/5 9/14/5
f 7/13/5 17/15/5 16/8/5
f 8/16/5 17/15/5 7/13/5
f 8/16/5 13/6/5 17/15/5
f 15/5/6 3/17/6 18/18/6
f 15/5/6 1/19/6 3/17/6
f 18/18/6 6/20/6 19/7/6
f 18/18/6 3/17/6 6/20/6
f 11/21/1 20/22/1 21/23/1
f 11/21/1 10/24/1 20/22/1
f 14/21/1 21/22/1 22/23/1
f 14/21/1 11/24/1 21/22/1
f 10/25/5 23/26/5 20/27/5
f 10/25/5 16/8/5 23/26/5
f 13/28/7 24/29/7 23/30/7
f 13/28/8 12/31/8 24/29/8
f 12/28/8 25/29/8 24/30/8
f 12/28/8 15/31/8 25/29/8
f 19/7/6 22/32/6 25/33/6
f 19/7/6 14/34/6 22/32/6
f 21/35/9 23/36/9 24/37/9
f 21/35/3 20/38/3 23/36/3
f 22/35/10 24/36/10 25/37/10
f 22/35/10 21/38/10 24/36/10
f 24/39/11 26/40/11 27/41/11
f 24/39/12 23/42/12 26/40/12
f 25/39/11 27/40/11 28/41/11
f 25/39/11 24/42/11 27/40/11
f 26/42/6 29/43/6 30/40/6
f 26/42/6 23/44/6 29/43/6
f 27/42/1 30/43/1 31/40/1
f 27/42/1 26/44/1 30/43/1
f 28/42/1 31/43/1 32/40/1
f 28/42/1 27/44/1 31/43/1
f 25/42/5 32/43/5 33/40/5
f 25/42/5 28/44/5 32/43/5
f 23/37/6 34/38/6 29/36/6
f 23/37/6 20/35/6 34/38/6
f 22/38/5 33/37/5 35/35/5
f 22/38/5 25/36/5 33/37/5
f 36/35/3 29/36/3 37/37/3
f 36/35/3 34/38/3 29/36/3
f 35/35/3 37/36/3 33/37/3
f 35/35/3 36/38/3 37/36/3
f 35/21/13 38/45/13 39/36/13
f 35/21/13 36/24/13 38/45/13
f 36/21/13 40/45/13 38/36/13
f 36/21/13 34/24/13 40/45/13
f 41/36/1 42/35/1 43/38/1
f 41/36/1 38/37/1 42/35/1
f 38/36/1 44/35/1 42/38/1
f 38/36/1 45/37/1 44/35/1
f 33/46/5 46/47/5 47/48/5
f 33/46/5 32/49/5 46/47/5
f 32/46/1 48/47/1 46/48/1
f 32/46/1 31/49/1 48/47/1
f 31/46/1 49/47/1 48/48/1
f 31/46/1 30/49/1 49/47/1
f 30/46/6 50/47/6 49/48/6
f 30/46/6 29/49/6 50/47/6
