mtllib material.mtl
o Default
v 0 1.53125 -0.25
v 0 2.75 -0.5
v 0 2.75 -0.25
v 0 1.53125 -0.5
v 0 1.21875 -0.25
v 0 1.21875 -0.5
v -1 1.5312750339508057 -0.5000121593475342
v -1 1.2187803983688354 -0.5000147819519043
v -1 3 -0.5
v -2.220446049250313e-16 3 -0.5
v -2 1.5312750339508057 -0.5000121593475342
v -2 1.2187803983688354 -0.5000147819519043
v -2 3 -0.5
v -2 1.53125 -0.25
v -2 1.21875 -0.25
v -2 2.75 -0.25
v -2 2.75 -0.5
v -1 1.53125 -0.25
v -1 2.75 -0.25
v -1 1.21875 -0.25
v -2 0.25 -0.5
v -2 0.25 -0.25
v -1 0.00005117058753967285 -0.5000250339508057
v -2 0.00005117058753967285 -0.5000250339508057
v -2.220446049250313e-16 0.00005117058753967285 -0.5000250339508057
v 0 0.25 -0.25
v 0 0.25 -0.5
v -1 0.25 -0.25
v 0 2.75 -0.09375
v 0 2.875 -0.5
v 0 2.875 8.881784197001252e-16
v 0 3 8.881784197001252e-16
v -1 2.75 -0.09375
v -1 2.875 1.7763568394002505e-15
v -1 3 1.7763568394002505e-15
v -2 2.875 1.7763568394002505e-15
v -2 3 1.7763568394002505e-15
v -2 2.75 -0.09375
v -2 2.875 -0.5
v -2 0.125 -0.5
v -2 0.25 -0.09375
v -2 0.125 1.7763568394002505e-15
v -2 2.2161942085528925e-16 1.7763568394002505e-15
v 0 -2.860595699000283e-18 8.881784197001252e-16
v 0 0.125 -0.5
v 0 0.125 8.881784197001252e-16
v 0 0.25 -0.09375
v -1 -2.2439688995845586e-13 3.5200933723444905e-8
v -1 0.25 -0.09375
v -1 0.125 1.5543122344752192e-15
vt 0.03125 0.53515625
vt 0.0625 0.6875
vt 0.03125 0.6875
vt 0.0625 0.53515625
vt 0.03125 0.49609375
vt 0.0625 0.49609375
vt 0.25 0.58984375
vt 0.375 0.62890625
vt 0.25 0.62890625
vt 0.375 0.58984375
vt 0.375 0.8125
vt 0.25 0.8125
vt 0.1875 0.49609375
vt 0.21875 0.53515625
vt 0.1875 0.53515625
vt 0.21875 0.49609375
vt 0.21875 0.6875
vt 0.1875 0.6875
vt 0.1875 0.375
vt 0.21875 0.375
vt 0.25 0.4375
vt 0.375 0.4375
vt 0.03125 0.375
vt 0.0625 0.375
vt 0 0.6875
vt 0.0625 0.703125
vt 0 0.703125
vt 0.0625 0.71875
vt 0 0.71875
vt 0.1875 0.734375
vt 0.0625 0.734375
vt 0.1875 0.71875
vt 0.1875 0.75
vt 0.0625 0.75
vt 0.25 0.703125
vt 0.1875 0.703125
vt 0.25 0.6875
vt 0.25 0.71875
vt 0.1875 0.359375
vt 0.25 0.375
vt 0.25 0.359375
vt 0.1875 0.34375
vt 0.25 0.34375
vt 0 0.34375
vt 0.0625 0.359375
vt 0 0.359375
vt 0.0625 0.34375
vt 0 0.375
vt 0.1875 0.8125
vt 0.0625 0.8125
vt 0.0625 0.328125
vt 0.1875 0.328125
vt 0.0625 0.3125
vt 0.1875 0.3125
vn 1 0 0
vn 0.00001216 0 -1
vn 0.00001478 0.00000839 -1
vn 0 0 -1
vn 0.00001216 0.00000828 -1
vn 0 0.00000839 -1
vn 0 0.00000828 -1
vn -1 0 0
vn 0 0 1
vn 0 0.00000841 -1
vn 0.00001478 0.00002054 -1
vn 0 -0.6 0.8
vn 0 -0.99999999 -0.00010234
vn 0 1 0
vn 0 -1 0
vn 0 0.6 0.8
vn 0 2.8e-7 1
vn 4e-8 0 1
g WallWindowTile
usemtl 0_3
f 1/1/1 2/2/1 3/3/1
f 1/1/1 4/4/1 2/2/1
f 5/5/1 4/4/1 1/1/1
f 5/5/1 6/6/1 4/4/1
f 6/7/2 7/8/2 4/9/2
f 6/7/3 8/10/3 7/8/3
f 4/9/4 9/11/4 10/12/4
f 4/9/5 7/8/5 9/11/5
f 8/7/6 11/8/6 7/9/6
f 8/7/6 12/10/6 11/8/6
f 7/9/7 13/11/7 9/12/7
f 7/9/7 11/8/7 13/11/7
f 12/13/8 14/14/8 11/15/8
f 12/13/8 15/16/8 14/14/8
f 11/15/8 16/17/8 17/18/8
f 11/15/8 14/14/8 16/17/8
f 18/4/9 3/18/9 19/2/9
f 18/4/9 1/15/9 3/18/9
f 20/6/9 1/15/9 18/4/9
f 20/6/9 5/13/9 1/15/9
f 14/4/9 19/18/9 16/2/9
f 14/4/9 18/15/9 19/18/9
f 15/6/9 18/15/9 14/4/9
f 15/6/9 20/13/9 18/15/9
f 21/19/8 15/16/8 12/13/8
f 21/19/8 22/20/8 15/16/8
f 23/21/10 12/10/10 8/7/10
f 23/21/10 24/22/10 12/10/10
f 25/21/11 8/10/11 6/7/11
f 25/21/10 23/22/10 8/10/10
f 26/23/1 6/6/1 5/5/1
f 26/23/1 27/24/1 6/6/1
f 22/24/9 20/13/9 15/6/9
f 22/24/9 28/19/9 20/13/9
f 28/24/9 5/13/9 20/6/9
f 28/24/9 26/19/9 5/13/9
f 29/25/1 30/26/1 31/27/1
f 29/25/1 2/2/1 30/26/1
f 31/27/1 10/28/1 32/29/1
f 31/27/1 30/26/1 10/28/1
f 33/28/12 31/30/12 34/31/12
f 33/28/12 29/32/12 31/30/12
f 34/31/9 32/33/9 35/34/9
f 34/31/9 31/30/9 32/33/9
f 36/31/9 35/33/9 37/34/9
f 36/31/9 34/30/9 35/33/9
f 38/28/12 34/30/12 36/31/12
f 38/28/12 33/32/12 34/30/12
f 17/18/8 36/35/8 39/36/8
f 17/18/8 38/37/8 36/35/8
f 39/36/8 37/38/8 13/32/8
f 39/36/8 36/35/8 37/38/8
f 40/39/8 41/40/8 21/19/8
f 40/39/8 42/41/8 41/40/8
f 24/42/8 42/41/8 40/39/8
f 24/42/8 43/43/8 42/41/8
f 44/44/1 45/45/1 46/46/1
f 44/44/1 25/47/1 45/45/1
f 46/46/1 27/24/1 47/48/1
f 46/46/1 45/45/1 27/24/1
f 48/34/13 24/49/13 23/50/13
f 48/34/13 43/33/13 24/49/13
f 41/47/14 28/19/14 22/24/14
f 41/47/14 49/42/14 28/19/14
f 16/2/15 33/32/15 38/28/15
f 16/2/15 19/18/15 33/32/15
f 9/34/14 37/49/14 35/50/14
f 9/34/14 13/33/14 37/49/14
f 10/34/14 35/49/14 32/50/14
f 10/34/14 9/33/14 35/49/14
f 44/34/13 23/49/13 25/50/13
f 44/34/13 48/33/13 23/49/13
f 19/2/15 29/32/15 33/28/15
f 19/2/15 3/18/15 29/32/15
f 49/47/14 26/19/14 28/24/14
f 49/47/14 47/42/14 26/19/14
f 50/51/16 47/42/16 49/47/16
f 50/51/16 46/52/16 47/42/16
f 48/53/17 46/52/17 50/51/17
f 48/53/18 44/54/18 46/52/18
f 42/51/16 49/42/16 41/47/16
f 42/51/16 50/52/16 49/42/16
f 43/53/9 50/52/9 42/51/9
f 43/53/9 48/54/9 50/52/9
