mtllib material.mtl
o Default
v -0.0625 0 -0.03127032145857811
v 0 0 0.03122890368103981
v -0.0625 0 0.03123084083199501
v 0 0 -0.03127187117934227
v -0.0625 0.375 -0.03127109631896019
v 0 0.375 0.031227324157953262
v -0.0625 0.375 0.031229648739099503
v 0 0.375 -0.03127303346991539
v 0 0.125 -0.03127187117934227
v 0.0625 0.125 0.03122696653008461
v 0 0.125 0.03122890368103981
v 0.0625 0.125 -0.03127345070242882
v -0.06249795854091644 0.3125 -0.031234655529260635
v -0.0000018477439880371094 0.3125 0.031265344470739365
v -3.129243850708008e-7 0.3125 -0.031234655529260635
v -0.06249989569187164 0.3125 0.031265344470739365
v -0.0625 0.4375 0.0312499962747097
v 0.0625 0.4375 -0.03124140575528145
v -0.0625 0.4375 -0.03124687448143959
v 0.0625 0.4375 0.03125625476241112
v 0.0625 0 -0.03125
v 0.0625 0 0.03125
vt 0.65625 0.1640625
vt 0.6484375 0.171875
vt 0.6484375 0.1640625
vt 0.65625 0.171875
vt 0.640625 0.1796875
vt 0.640625 0.171875
vt 0.6484375 0.1796875
vt 0.65625 0.1796875
vt 0.640625 0.1640625
vt 0.6484375 0.15625
vt 0.640625 0.15625
vt 0.625 0.1875
vt 0.625 0.1796875
vt 0.640625 0.1875
vt 0.640625 0.125
vt 0.625 0.125
vt 0.6484375 0.125
vt 0.65625 0.125
vt 0.6328125 0.1796875
vt 0.6328125 0.1875
vt 0.640625 0.140625
vt 0.6484375 0.140625
vt 0.65625 0.140625
vn 0 -1 0
vn 0 1 0
vn 0.00004375 0.00001964 -1
vn 0.00016257 0.00005359 -0.99999999
vn -1 0.00000501 0
vn -1 0.00002955 -0.00002456
vn -1 0.00000654 -0.00003099
vn -1 3.3e-7 0
vn -1 0 0
vn 1 0 0
vn -0.00005007 -0.00004378 1
vn -0.00015327 -0.0000143 0.99999999
g Wrench
usemtl 0_3
f 1/1/1 2/2/1 3/3/1
f 1/1/1 4/4/1 2/2/1
f 5/2/1 6/5/1 7/6/1
f 5/2/1 8/7/1 6/5/1
f 9/4/1 10/7/1 11/2/1
f 9/4/1 12/8/1 10/7/1
f 13/9/2 14/10/2 15/11/2
f 13/9/2 16/3/2 14/10/2
f 17/12/2 18/5/2 19/13/2
f 17/12/2 20/14/2 18/5/2
f 21/15/3 19/13/3 18/5/3
f 21/15/4 1/16/4 19/13/4
f 15/9/5 6/2/5 8/6/5
f 15/9/6 14/3/6 6/2/6
f 1/17/7 16/1/7 13/3/7
f 1/17/8 3/18/8 16/1/8
f 5/19/9 17/14/9 19/20/9
f 5/19/9 7/5/9 17/14/9
f 10/21/10 18/7/10 20/5/10
f 10/21/10 12/22/10 18/7/10
f 2/17/10 9/23/10 11/22/10
f 2/17/10 4/18/10 9/23/10
f 3/16/11 20/5/11 17/13/11
f 3/16/12 22/15/12 20/5/12
